/* XPM */
static char *_6d96281acff481ebe3c4579cfb53d70[] = {
/* columns rows colors chars-per-pixel */
"16 16 25 1 ",
"  c #FF9D00",
". c #FF9B04",
"X c #FFA000",
"o c #AE864A",
"O c #0E6E9D",
"+ c #116F9A",
"@ c #106E9C",
"# c #116D9F",
"$ c #126D9F",
"% c #146E9D",
"& c #27728C",
"* c #347588",
"= c #0B6BA7",
"- c #0E6BA7",
"; c #006AAB",
": c #0B6AA9",
"> c #106DA0",
", c #116DA0",
"< c #0C66B5",
"1 c #0064BC",
"2 c #005ED2",
"3 c #0062C6",
"4 c #0062C7",
"5 c #0060CD",
"6 c None",
/* pixels */
"6666666666666666",
"6666666666666666",
"6666;,6666666666",
"66664O66,,,>,>,6",
"66666666>,>,>,>>",
"6636@,,,666666>>",
"66<66:@,666666>>",
".X666666>,>>,>,6",
" o666666>>,>>,>6",
"66266-%>666666>,",
"61*6&:,,666666>>",
"66666666,>,>,>>>",
"66665+66>,>,>,>6",
"6666;,6666666666",
"6666666666666666",
"6666666666666666"
};
