/* XPM */
static char *_f5c55537cd34fb1f3a4f0b9918254d0[] = {
/* columns rows colors chars-per-pixel */
"32 32 57 1 ",
"  c #FF9C00",
". c #FF9E00",
"X c #FF9F00",
"o c #FF9B04",
"O c #FF9A06",
"+ c #FF9A07",
"@ c #FF970F",
"# c #FF9A08",
"$ c #FF9711",
"% c #FF9612",
"& c #FF9615",
"* c #FF9516",
"= c #FF9517",
"- c #F7931E",
"; c #FF9518",
": c #FF9419",
"> c #FF941A",
", c #FF951A",
"< c #F8921F",
"1 c #F69220",
"2 c #0F6D9F",
"3 c #116E9C",
"4 c #126E9D",
"5 c #136E9D",
"6 c #116D9F",
"7 c #136D9E",
"8 c #126D9F",
"9 c #116E9E",
"0 c #126E9E",
"q c #136E9E",
"w c #146E9D",
"e c #076CA2",
"r c #046BA6",
"t c #056CA4",
"y c #076CA5",
"u c #0B6CA2",
"i c #0A6CA3",
"p c #0C6DA1",
"a c #0E6DA0",
"s c #0C6CA2",
"d c #006AAA",
"f c #066BA8",
"g c #0069AD",
"h c #0069AE",
"j c #0069AF",
"k c #0869AD",
"l c #106DA0",
"z c #116DA0",
"x c #0067B2",
"c c #0067B5",
"v c #0066B6",
"b c #0066B7",
"n c #0068B0",
"m c #0064BE",
"M c #0063C1",
"N c #0061C9",
"B c None",
/* pixels */
"BBBBBBBBBBBBBBBBBBBBBBBBBBBBBBBB",
"BBBBBBBBBBBBBBBBBBBBBBBBBBBBBBBB",
"BBBBBBBBBBBBBBBBBBBBBBBBBBBBBBBB",
"BBBBBBBBBBBBBBBBBBBBBBBBBBBBBBBB",
"BBBBBBBBBlBBBBBBBBBBBBBBBBBBBBBB",
"BBBBBBBB82lBBBBBBBBBBBBBBBBBBBBB",
"BBBBBBBBe8lllllllllllllllllllBBB",
"BBBBBBBBm8lBBBBBllllllllllllllBB",
"BBBBB:%BBBBBBBBBlllllllllllllllB",
"BBBBBBXBBBBllllllBBBBBBBBBllllll",
"BBBBBBBBBBllllllBBBBBBBBBBBlllll",
"BBB88vNj88lllllBBBBBBBBBBBBlllll",
"BBB2lrtdvt88lllBBBBBBBBBBBBlllll",
"BBBBBBBBBBnwllllBBBBBBBBBBBlllll",
"BBBBBBBBBBBf8llllBBBBBBBBBlllllB",
"-1:O#&&:<.BBBBBBlllllllllllllBBB",
"-1:oo@:::XBBBBBBlllllllllllllBBB",
"BBBBBBBBBBBBBBBllllllllllllllllB",
"BBBBBBBBBBjwllllBBBBBBBBBBBlllll",
"BBBp8eBBjp8llllBBBBBBBBBBBBlllll",
"BBBlecMnpllllllBBBBBBBBBBBBlllll",
"BBBBkBBBBBllllllBBBBBBBBBBBlllll",
"BBBBBBXBBBBllllllBBBBBBBBBllllll",
"BBBBB&$BBBBBBBBBlllllllllllllllB",
"BBBBBBBBmqBBBBBBllllllllllllllBB",
"BBBBBBBBellllllllllllllllllllBBB",
"BBBBBBBBqllBBBBBBBBBBBBBBBBBBBBB",
"BBBBBBBBBlBBBBBBBBBBBBBBBBBBBBBB",
"BBBBBBBBBBBBBBBBBBBBBBBBBBBBBBBB",
"BBBBBBBBBBBBBBBBBBBBBBBBBBBBBBBB",
"BBBBBBBBBBBBBBBBBBBBBBBBBBBBBBBB",
"BBBBBBBBBBBBBBBBBBBBBBBBBBBBBBBB"
};
