/* XPM */
static char *_f031dfbdc1a44b0b7ed4487106daefd[] = {
/* columns rows colors chars-per-pixel */
"64 64 14 1 ",
"  c #F7931E",
". c #F6931F",
"X c #F9931E",
"o c #F69220",
"O c #F79220",
"+ c #F69221",
"@ c #0F6E9E",
"# c #116D9F",
"$ c #136D9F",
"% c #136E9E",
"& c #0E6DA0",
"* c #106DA0",
"= c #116DA0",
"- c None",
/* pixels */
"----------------------------------------------------------------",
"----------------------------------------------------------------",
"----------------------------------------------------------------",
"----------------------------------------------------------------",
"----------------------------------------------------------------",
"----------------------------------------------------------------",
"----------------------------------------------------------------",
"----------------------------------------------------------------",
"----------------------------------------------------------------",
"------------------**--------------------------------------------",
"-----------------****-------------------------------------------",
"----------------*******-----------------------------------------",
"----------------****************************************--------",
"----------------#*****************************************------",
"----------------&#****----------****************************----",
"-----------------#***-----------*****************************---",
"-----------  +------------------*****************************---",
"-----------X  +-----------------******************************--",
"-----------+  -----------------*******************************--",
"------------ --------************--------------------**********-",
"--------------------************----------------------*********-",
"-------*#&---------************------------------------********-",
"------***#*-------************-------------------------********-",
"------************************-------------------------********-",
"------************************-------------------------********-",
"------#****-------************-------------------------********-",
"-------#*#---------#***********-----------------------*********-",
"--------------------%***********----------------------********--",
"---------------------*#**********-------------------**********--",
"-------------------------------******************************---",
"--   -----------X X-------------****************************----",
"-                 o -------------*************************------",
"-              X   o-------------*************************------",
"--   ------------oX-------------****************************----",
"-------------------------------******************************---",
"----------------------************------------------**********--",
"--------------------%***********---------------------*********--",
"--------*----------#***********-----------------------*********-",
"------#****-------*************------------------------********-",
"------************************-------------------------********-",
"------************************-------------------------********-",
"------****#-------************-------------------------********-",
"-------***---------************------------------------********-",
"--------------------***********-----------------------*********-",
"---------------------************--------------------**********-",
"-----------   ----------***---*********************************-",
"-----------   o-----------------******************************--",
"-----------  o------------------*****************************---",
"-----------------@**------------*****************************---",
"----------------&#****----------****************************----",
"----------------#******-------****************************------",
"---------------#****************************************--------",
"----------------*******-----------------------------------------",
"----------------*****-------------------------------------------",
"------------------**--------------------------------------------",
"----------------------------------------------------------------",
"----------------------------------------------------------------",
"----------------------------------------------------------------",
"----------------------------------------------------------------",
"----------------------------------------------------------------",
"----------------------------------------------------------------",
"----------------------------------------------------------------",
"----------------------------------------------------------------",
"----------------------------------------------------------------"
};
